<!DOCTYPE svg PUBLIC "-//W3C//DTD SVG 1.1//EN" "http://www.w3.org/Graphics/SVG/1.1/DTD/svg11.dtd">
<!-- Uploaded to: SVG Repo, www.svgrepo.com, Transformed by: SVG Repo Mixer Tools -->
<svg width="800px" height="800px" viewBox="0 -0.5 25 25" fill="none" xmlns="http://www.w3.org/2000/svg">
<g id="SVGRepo_bgCarrier" stroke-width="0"/>
<g id="SVGRepo_tracerCarrier" stroke-linecap="round" stroke-linejoin="round"/>
<g id="SVGRepo_iconCarrier"> <path fill-rule="evenodd" clip-rule="evenodd" d="M9.52086 18.997C7.38994 19.0639 5.60629 17.3947 5.53187 15.264V11.53L5.52687 9.664C5.39841 8.98798 5.73952 8.30986 6.35887 8.01L10.4039 5.597C11.703 4.801 13.3388 4.801 14.6379 5.597L18.6829 8.013C19.3022 8.31286 19.6433 8.99098 19.5149 9.667L19.5099 11.534V15.267C19.4338 17.3965 17.6507 19.0639 15.5209 18.997H9.52086Z" stroke="#222222" stroke-width="1.5" stroke-linecap="round" stroke-linejoin="round"/> <path d="M5.90533 9.01651C5.54773 8.80748 5.08838 8.92793 4.87936 9.28553C4.67033 9.64314 4.79077 10.1025 5.14838 10.3115L5.90533 9.01651ZM10.4369 12.534L10.8219 11.8903L10.8153 11.8865L10.4369 12.534ZM14.6039 12.534L14.2254 11.8865L14.2189 11.8904L14.6039 12.534ZM19.8923 10.3115C20.2499 10.1025 20.3704 9.64314 20.1614 9.28553C19.9523 8.92793 19.493 8.80748 19.1354 9.01651L19.8923 10.3115ZM14.339 9.72462C14.7408 9.82508 15.148 9.58076 15.2485 9.17891C15.3489 8.77706 15.1046 8.36986 14.7028 8.2694L14.339 9.72462ZM12.5209 8.49701L12.7028 7.7694C12.5833 7.73954 12.4584 7.73954 12.339 7.7694L12.5209 8.49701ZM10.339 8.2694C9.93711 8.36986 9.69279 8.77706 9.79325 9.17891C9.89371 9.58076 10.3009 9.82508 10.7028 9.72462L10.339 8.2694ZM5.14838 10.3115L10.0584 13.1815L10.8153 11.8865L5.90533 9.01651L5.14838 10.3115ZM10.0519 13.1777C11.572 14.0868 13.4688 14.0868 14.9888 13.1777L14.2189 11.8904C13.1729 12.5159 11.8678 12.5159 10.8218 11.8904L10.0519 13.1777ZM14.9823 13.1815L19.8923 10.3115L19.1354 9.01651L14.2254 11.8865L14.9823 13.1815ZM14.7028 8.2694L12.7028 7.7694L12.339 9.22462L14.339 9.72462L14.7028 8.2694ZM12.339 7.7694L10.339 8.2694L10.7028 9.72462L12.7028 9.22462L12.339 7.7694Z" fill="#222222"/> </g>
</svg>